:SAMPLES-PER-SECOND 30
:FULLY-SPECIFIED
:DEGREES
49
root  36.3001 38.6509 5.01378 -15.9908 -78.1075 12.4968
RightUpLeg  9.94302 -11.9473 -8.66843
RightLeg  12.6898 -1.1536 0.657695
RightFoot  -17.6256 0.102397 4.04044
RightToes  -6.98493e-010 0 -3.6325e-017
Spine  5.91632 -0.421176 8.42503
Spine1  2.60123 0.758657 -3.95356
HEad  -2.52981 -0.318179 -10.5012
LeftShoulder1  -0.499256 4.88983 -29.8526
LeftArm  -13.9339 19.0001 -40.6917
LeftForeArm  22.5668 -7.62356 -3.2273
LeftHand  -0.0394241 6.38914 -0.488926
RightShoulder  -0.905192 -6.2559 26.3033
RightArm  13.009 -5.10337 45.4398
RightForeArm  10.5477 14.8474 5.12151
RightHand  -0.178873 2.37557 -2.8708
LeftUpLeg  -19.5544 6.09372 3.18375
LeftLeg  17.6931 -1.44473 -0.186523
LeftFoot  -6.72048 0.359014 -7.90042
LeftToes  7.91257e-010 -1.64976e-010 -3.02228e-011
50
root  35.685 38.5688 5.32164 -16.1465 -77.5234 12.7827
RightUpLeg  11.4233 -12.0214 -9.35083
RightLeg  11.9492 -1.39438 0.563825
RightFoot  -18.0641 0.149917 4.6328
RightToes  -6.98493e-010 0 -3.6325e-017
Spine  6.09695 -0.304809 7.90064
Spine1  2.70242 0.849691 -4.05632
HEad  -3.18411 -1.66214 -9.94568
LeftShoulder1  -0.442253 4.74009 -29.6074
LeftArm  -14.1218 19.9502 -40.7034
LeftForeArm  22.72 -6.94005 -3.00586
LeftHand  -0.0451974 6.37467 -1.39578
RightShoulder  -0.935354 -6.34565 26.3291
RightArm  13.1427 -3.53404 45.2601
RightForeArm  9.88745 15.6697 4.94888
RightHand  -0.192176 2.53052 -3.03897
LeftUpLeg  -20.1444 6.85067 2.64184
LeftLeg  14.7651 -1.75511 -0.252769
LeftFoot  -6.23952 0.377236 -7.60316
LeftToes  7.91257e-010 -1.64976e-010 -3.02228e-011
51
root  35.005 38.4416 5.6743 -15.1518 -77.125 12.0437
RightUpLeg  12.7402 -11.9167 -9.68482
RightLeg  11.3851 -1.68775 0.37097
RightFoot  -18.6351 0.221726 5.4587
RightToes  -6.98493e-010 0 -3.6325e-017
Spine  6.07991 -0.30466 7.5991
Spine1  2.86605 0.827962 -4.15331
HEad  -3.91277 -2.39969 -9.64517
LeftShoulder1  -0.498074 4.88436 -29.9136
LeftArm  -13.9105 20.4762 -40.2375
LeftForeArm  22.9735 -6.37115 -3.05507
LeftHand  -0.0451489 7.49736 -0.195604
RightShoulder  -0.859167 -6.14542 25.9221
RightArm  11.8349 -2.38852 45.5208
RightForeArm  9.3362 16.0449 4.69508
RightHand  -0.178596 3.16506 -2.67714
LeftUpLeg  -20.9659 7.60644 2.35671
LeftLeg  13.0049 0.135544 0.138451
LeftFoot  -5.58481 0.412024 -7.55504
LeftToes  7.91257e-010 -1.64976e-010 -3.02228e-011
52
root  34.2375 38.284 6.11038 -14.261 -76.9184 11.5758
RightUpLeg  14.0479 -11.9219 -10.2321
RightLeg  10.7962 -1.60411 0.2692
RightFoot  -19.2404 0.314873 6.44428
RightToes  -6.98493e-010 0 -3.6325e-017
Spine  5.86451 -0.167424 7.81683
Spine1  2.85694 1.14934 -5.19554
HEad  -4.47603 -2.65469 -8.77657
LeftShoulder1  -0.413022 4.66029 -29.5644
LeftArm  -13.8923 21.5716 -39.8125
LeftForeArm  22.9007 -6.36872 -2.97051
LeftHand  -0.0598394 6.9409 -1.4309
RightShoulder  -0.867009 -6.16693 25.9505
RightArm  10.8584 -2.21301 45.2016
RightForeArm  8.11107 17.1818 4.41303
RightHand  -0.222234 2.21984 -3.57121
LeftUpLeg  -22.0995 9.08686 1.79999
LeftLeg  12.938 2.24375 0.54324
LeftFoot  -4.83021 0.360135 -5.80367
LeftToes  7.91257e-010 -1.64976e-010 -3.02228e-011
53
root  33.4016 38.0639 6.62153 -12.952 -76.6027 10.5305
RightUpLeg  15.6142 -12.1579 -11.0379
RightLeg  10.5448 -1.09262 0.412174
RightFoot  -20.0455 0.44816 7.6609
RightToes  -6.98493e-010 0 -3.6325e-017
Spine  6.03947 -0.170356 7.54903
Spine1  2.59825 1.17689 -5.4796
HEad  -3.96276 -1.95896 -8.19282
LeftShoulder1  -0.418634 4.67286 -29.657
LeftArm  -13.9808 22.6763 -39.2136
LeftForeArm  22.042 -6.91242 -2.91644
LeftHand  -0.0666733 7.41514 -1.50952
RightShoulder  -0.826927 -6.06063 25.7237
RightArm  10.3393 -2.1973 44.7701
RightForeArm  6.83937 18 4.32427
RightHand  -0.239781 2.84903 -3.59799
LeftUpLeg  -23.2457 10.7434 0.984422
LeftLeg  14.3836 3.93594 1.21651
LeftFoot  -4.31266 0.319162 -4.72961
LeftToes  7.91257e-010 -1.64976e-010 -3.02228e-011
54
root  32.503 37.8255 7.23092 -12.5724 -76.3769 10.3859
RightUpLeg  17.1678 -12.3739 -12.2054
RightLeg  10.5895 -0.276511 0.34745
RightFoot  -20.727 0.642217 9.52855
RightToes  -6.98493e-010 0 -3.6325e-017
Spine  5.96367 -0.220009 7.65656
Spine1  2.708 1.36805 -6.67649
HEad  -3.85646 -0.776061 -6.51968
LeftShoulder1  -0.406679 4.648 -29.3774
LeftArm  -13.8545 23.3487 -38.8385
LeftForeArm  20.5317 -6.99723 -2.98891
LeftHand  -0.0348575 8.37107 0.454065
RightShoulder  -0.845327 -6.09375 26.0306
RightArm  10.2401 -2.24155 44.0548
RightForeArm  6.29468 18.6078 4.29567
RightHand  -0.263495 3.29809 -3.76232
LeftUpLeg  -24.0216 11.8242 -0.0655356
LeftLeg  16.5749 4.08376 1.65229
LeftFoot  -2.66146 0.217778 -2.84213
LeftToes  7.91257e-010 -1.64976e-010 -3.02228e-011
55
root  31.5187 37.5935 7.91481 -13.589 -76.1566 11.4454
RightUpLeg  19.1222 -12.5876 -13.9643
RightLeg  10.6514 1.15268 0.257484
RightFoot  -21.1 0.894985 12.1064
RightToes  -6.98493e-010 0 -3.6325e-017
Spine  5.62281 -0.0445899 6.73551
Spine1  3.34506 1.6173 -7.09414
HEad  -4.79768 -1.69244 -5.57314
LeftShoulder1  -0.360899 4.52947 -29.0307
LeftArm  -14.0708 23.6826 -38.99
LeftForeArm  20.9796 -6.84353 -2.85885
LeftHand  -0.0284344 7.93455 0.49381
RightShoulder  -0.83639 -6.08478 25.7921
RightArm  10.4066 -2.58713 43.4404
RightForeArm  6.02894 18.7048 4.31263
RightHand  -0.268106 3.40704 -3.78529
LeftUpLeg  -24.5763 12.4891 -1.26394
LeftLeg  19.9863 3.39805 1.70212
LeftFoot  0.966379 -0.0666228 0.600962
LeftToes  7.91257e-010 -1.64976e-010 -3.02228e-011
56
root  30.4455 37.2952 8.68939 -15.1631 -75.292 12.8591
RightUpLeg  20.8606 -12.7555 -16.1948
RightLeg  12.3588 2.40911 0.289958
RightFoot  -21.4955 1.22408 15.3476
RightToes  -6.98493e-010 0 -3.6325e-017
Spine  5.60193 -0.284833 5.797
Spine1  3.36089 1.41831 -7.53055
HEad  -5.46025 -2.07345 -4.39112
LeftShoulder1  -0.375551 4.56781 -29.1336
LeftArm  -13.8691 23.4373 -38.4241
LeftForeArm  22.0128 -6.47506 -2.85461
LeftHand  -0.043788 7.17767 -0.521643
RightShoulder  -0.827773 -6.03934 26.0328
RightArm  10.0001 -3.33144 42.8864
RightForeArm  6.55001 18.3424 4.26114
RightHand  -0.289576 3.1572 -4.1668
LeftUpLeg  -25.1787 11.506 -2.32129
LeftLeg  24.7979 3.17596 1.94127
LeftFoot  1.65752 -0.290073 2.51449
LeftToes  7.91257e-010 -1.64976e-010 -3.02228e-011
57
root  29.4048 37.0634 9.45163 -17.3706 -74.2784 14.5457
RightUpLeg  22.176 -11.3719 -17.8319
RightLeg  15.1763 1.93943 0.118694
RightFoot  -20.8197 1.49433 19.5897
RightToes  -6.98493e-010 0 -3.6325e-017
Spine  5.6809 -0.351336 4.66745
Spine1  4.2556 1.41951 -8.15059
HEad  -5.7634 -2.86298 -3.75888
LeftShoulder1  -0.412577 4.66807 -29.2801
LeftArm  -13.2262 21.4567 -37.9734
LeftForeArm  21.9428 -5.40419 -3.11896
LeftHand  -0.0337803 8.67211 0.339373
RightShoulder  -0.784935 -5.91889 25.8645
RightArm  7.8828 -4.70425 43.1827
RightForeArm  7.07905 17.6164 4.04745
RightHand  -0.302765 3.63614 -4.14725
LeftUpLeg  -25.015 10.912 -3.56579
LeftLeg  29.5121 3.21973 2.31637
LeftFoot  -1.49779 -0.326636 3.89284
LeftToes  7.91257e-010 -1.64976e-010 -3.02228e-011
58
root  28.4592 36.9364 10.1965 -21.3873 -73.4598 17.979
RightUpLeg  21.8846 -8.33838 -19.2001
RightLeg  20.203 -0.0150737 -0.204103
RightFoot  -18.5942 1.41168 24.3905
RightToes  -6.98493e-010 0 -3.6325e-017
Spine  6.36981 -0.106479 3.1598
Spine1  4.96846 1.63862 -9.13318
HEad  -5.85314 -4.45886 -3.79953
LeftShoulder1  -0.377346 4.56309 -29.4691
LeftArm  -12.3267 18.9731 -37.917
LeftForeArm  23.6329 -4.52198 -3.54742
LeftHand  -0.0516255 7.06573 -0.817773
RightShoulder  -0.732457 -5.7851 25.4506
RightArm  4.20241 -6.81124 44.0003
RightForeArm  7.66845 16.8473 3.55233
RightHand  -0.317433 3.92357 -4.22827
LeftUpLeg  -23.619 10.7333 -5.24685
LeftLeg  32.1556 3.24665 2.55927
LeftFoot  -4.57792 -0.241103 4.51496
LeftToes  7.91257e-010 -1.64976e-010 -3.02228e-011
59
root  27.5541 36.978 10.9203 -24.6679 -72.9776 21.0349
RightUpLeg  18.9555 -5.07425 -19.8156
RightLeg  28.1988 -1.98962 -1.41704
RightFoot  -13.0693 0.368982 25.9036
RightToes  -6.98493e-010 0 -3.6325e-017
Spine  6.6727 0.143423 1.79674
Spine1  5.58616 1.78748 -9.679
HEad  -4.81787 -4.77668 -4.21636
LeftShoulder1  -0.371865 4.54308 -29.6222
LeftArm  -11.5398 16.2573 -38.2291
LeftForeArm  24.2197 -4.26497 -4.10567
LeftHand  -0.0489462 8.26476 -0.0929718
RightShoulder  -0.735701 -5.80497 25.3113
RightArm  0.991767 -8.1921 45.2442
RightForeArm  8.00736 15.844 2.95832
RightHand  -0.254301 2.31941 -4.02333
LeftUpLeg  -21.6487 10.3477 -6.71722
LeftLeg  32.9383 3.61758 2.88726
LeftFoot  -6.91892 -0.132526 4.50913
LeftToes  7.91257e-010 -1.64976e-010 -3.02228e-011
60
root  26.626 37.2182 11.6269 -26.8199 -73.0221 23.0683
RightUpLeg  13.5282 -1.26049 -19.1689
RightLeg  38.5632 -3.11174 -2.89586
RightFoot  -2.64194 -1.26534 17.3113
RightToes  -6.98493e-010 0 -3.6325e-017
Spine  7.21929 0.118267 0.853086
Spine1  5.23839 1.73486 -9.60255
HEad  -4.46788 -5.691 -4.86113
LeftShoulder1  -0.433485 4.70765 -29.8587
LeftArm  -11.3578 13.5508 -38.7104
LeftForeArm  24.5808 -4.49473 -4.31914
LeftHand  -0.0343471 7.48457 0.274248
RightShoulder  -0.714799 -5.74884 25.1673
RightArm  -0.67856 -9.10048 46.8665
RightForeArm  7.92581 15.0223 2.5601
RightHand  -0.23645 2.58443 -3.65001
LeftUpLeg  -18.874 9.80667 -7.61439
LeftLeg  31.9347 4.43678 3.33868
LeftFoot  -8.38603 -0.0655509 4.49228
LeftToes  7.91257e-010 -1.64976e-010 -3.02228e-011
61
root  25.7933 37.433 12.1957 -28.5801 -73.2058 24.7889
RightUpLeg  7.53615 1.95845 -18.3428
RightLeg  47.8685 -1.93522 -2.56556
RightFoot  5.20846 -1.40464 9.45912
RightToes  -6.98493e-010 0 -3.6325e-017
Spine  7.86291 0.0471667 -0.75544
Spine1  5.25034 1.36547 -8.99111
HEad  -4.53443 -4.77313 -5.52237
LeftShoulder1  -0.421549 4.67274 -29.9126
LeftArm  -11.1495 10.6971 -39.4373
LeftForeArm  25.3901 -5.17785 -4.59916
LeftHand  -0.0379336 6.84925 0.0145662
RightShoulder  -0.685206 -5.6631 25.0464
RightArm  -0.829276 -9.34545 48.6057
RightForeArm  8.32187 14.9088 2.54813
RightHand  -0.225827 2.7626 -3.43568
LeftUpLeg  -16.4236 9.58062 -8.30701
LeftLeg  30.7816 5.31433 3.77679
LeftFoot  -9.59183 -0.00918542 4.38671
LeftToes  7.91257e-010 -1.64976e-010 -3.02228e-011
62
root  24.9763 37.6681 12.6697 -28.0132 -73.5026 24.1212
RightUpLeg  2.31265 4.86746 -16.4408
RightLeg  54.5815 0.38411 0.186465
RightFoot  2.44637 -1.20597 10.0788
RightToes  -6.98493e-010 0 -3.6325e-017
Spine  7.98368 -0.0263313 -2.11278
Spine1  6.07674 0.895302 -8.06228
HEad  -4.39757 -4.11674 -6.31061
LeftShoulder1  -0.347701 4.46571 -30.0054
LeftArm  -10.87 7.12714 -40.3829
LeftForeArm  25.1782 -5.65984 -4.92154
LeftHand  -0.0177304 6.7232 1.44481
RightShoulder  -0.693991 -5.68757 25.0993
RightArm  1.55557 -9.18874 49.7712
RightForeArm  8.60328 15.6329 3.13387
RightHand  -0.214366 3.09323 -3.16493
LeftUpLeg  -14.0222 9.88271 -8.10941
LeftLeg  29.4724 5.3333 3.61561
LeftFoot  -10.6635 0.0388462 4.24103
LeftToes  7.91257e-010 -1.64976e-010 -3.02228e-011
63
root  24.1054 37.9468 13.1256 -26.0643 -73.4871 22.1169
RightUpLeg  -2.77024 6.7089 -14.3778
RightLeg  58.838 1.85538 2.81187
RightFoot  1.41824 -1.01153 9.11913
RightToes  -6.98493e-010 0 -3.6325e-017
Spine  8.03963 -0.455902 -3.3549
Spine1  6.50938 0.0394621 -6.99042
HEad  -4.30968 -3.23305 -6.2738
LeftShoulder1  -0.308852 4.35836 -29.9955
LeftArm  -9.83713 3.71017 -41.2018
LeftForeArm  25.561 -6.4295 -5.6423
LeftHand  -0.0148405 6.33893 2.10318
RightShoulder  -0.666342 -5.58333 25.3486
RightArm  5.23174 -9.12323 50.6151
RightForeArm  9.7074 16.8547 3.73867
RightHand  -0.216118 2.82079 -3.27571
LeftUpLeg  -11.2766 9.45065 -7.65559
LeftLeg  27.4575 5.51372 3.47793
LeftFoot  -11.5156 0.0753001 3.89437
LeftToes  7.91257e-010 -1.64976e-010 -3.02228e-011
